PathFileType	4	(x/y/z)	S01_PSF_T11.trc
DataRate	CameraRate	NumFrames	NumMarkers	Units	OrigDataRate	OrigDataStartFrame	OrigNumFrames
240	240	4	51	mm	240	1	436
Frame#	Time	Sternum			R.Acromium			L.Acromium			Top.Head			R.ASIS			L.ASIS			R.PSIS			L.PSIS			R.Great.Tro			L.Great.Tro			R.Iliac.Crest			L.Iliac.Crest			V.Sacral			R.Thigh.Upper.Post			R.Thigh.Lower.Ant			R.Thigh.Lower.Post			R.Thigh.Upper.Ant			R.Knee.Lat			R.Knee.Med			R.Shank.Upper.Post			R.Shank.Lower.Ant			R.Shank.Lower.Post			R.Shank.Upper.Ant			R.Ankle.Lat			R.Ankle.Med			R.Heel.Upper			R.Heel.Med			R.Heel.Lat			R.Toe.Lat			R.Toe.Med			R.Toe.Tip			L.Thigh.Upper.Post			L.Thigh.Lower.Ant			L.Thigh.Lower.Post			L.Thigh.Upper.Ant			L.Knee.Lat			L.Knee.Med			L.Shank.Upper.Post			L.Shank.Lower.Ant			L.Shank.Lower.Post			L.Shank.Upper.Ant			L.Ankle.Lat			L.Ankle.Med			L.Heel.Upper			L.Heel.Med			L.Heel.Lat			L.Toe.Lat			L.Toe.Med			L.Toe.Tip			Cervical.Spine			Back			
		X1	Y1	Z1	X2	Y2	Z2	X3	Y3	Z3	X4	Y4	Z4	X5	Y5	Z5	X6	Y6	Z6	X7	Y7	Z7	X8	Y8	Z8	X9	Y9	Z9	X10	Y10	Z10	X11	Y11	Z11	X12	Y12	Z12	X13	Y13	Z13	X14	Y14	Z14	X15	Y15	Z15	X16	Y16	Z16	X17	Y17	Z17	X18	Y18	Z18	X19	Y19	Z19	X20	Y20	Z20	X21	Y21	Z21	X22	Y22	Z22	X23	Y23	Z23	X24	Y24	Z24	X25	Y25	Z25	X26	Y26	Z26	X27	Y27	Z27	X28	Y28	Z28	X29	Y29	Z29	X30	Y30	Z30	X31	Y31	Z31	X32	Y32	Z32	X33	Y33	Z33	X34	Y34	Z34	X35	Y35	Z35	X36	Y36	Z36	X37	Y37	Z37	X38	Y38	Z38	X39	Y39	Z39	X40	Y40	Z40	X41	Y41	Z41	X42	Y42	Z42	X43	Y43	Z43	X44	Y44	Z44	X45	Y45	Z45	X46	Y46	Z46	X47	Y47	Z47	X48	Y48	Z48	X49	Y49	Z49	X50	Y50	Z50	X51	Y51	Z51	

1	0	NaN	NaN	NaN	-1444	1493.9	470.57	-1504.3	1511.5	147.1	-1375.1	1804.9	296.33	NaN	NaN	NaN	NaN	NaN	NaN	-1644.2	1034	359.6	-1648.2	1026.5	257.19	-1489.4	943.46	532.49	-1504.2	948.66	107.48	-1487.9	1088.9	520.02	-1524	1074.5	111.56	-1657.5	993.52	307.35	-1578.6	654.91	505.91	-1517.4	569.83	481.16	-1598	569.77	489.17	-1501.2	655.56	501.33	-1615	503.58	487.99	-1583.8	498.88	340.69	-1739.5	398.09	499.61	NaN	NaN	NaN	-1782.1	342.38	487.57	NaN	NaN	NaN	-1898.2	165.96	450.96	-1861.6	162.49	360.95	-1973	169.67	390.32	-1967.3	138.61	359.58	-1977.2	135.2	422.69	NaN	NaN	NaN	-1778.5	48.934	359.69	NaN	NaN	NaN	-1421.4	669.4	135.26	-1315.2	635.7	131.95	-1378	590.88	154.77	-1368	713.16	111.54	-1295.4	535.64	144.59	-1281.3	548.74	289.43	-1310.1	392.6	122.63	-1233.4	315.97	149.47	-1294.6	315.89	125.5	-1247.6	391.36	142.34	-1270.6	104.09	155.07	-1244.8	117.24	256.05	-1337.7	69.514	204.82	-1324.5	46.204	237.73	-1327.2	44.891	175.32	-1119.6	48.837	138.93	-1092.1	63.136	258.6	-1030.9	78.342	204.86	-1556.8	1568.6	325.58	-1659.7	1258.7	351.92
2	0.0041667	NaN	NaN	NaN	-1439	1494.5	469.55	-1499.2	1511.7	146	-1370.7	1805.4	295.01	NaN	NaN	NaN	NaN	NaN	NaN	-1638.7	1034.1	359	-1642.6	1026.9	256.52	-1483.4	943.37	531.76	-1498.5	949.02	106.9	-1481.8	1089.3	519.16	-1518.2	1075	110.89	-1651.9	993.73	306.62	-1571.3	654.53	506.05	-1509.7	569.59	482.04	-1590	569.04	489.7	-1494	655.56	501.55	-1606.7	503.02	488.82	-1575	497.72	341.66	-1732.5	399.4	500.15	NaN	NaN	NaN	-1775.6	344.3	488.15	NaN	NaN	NaN	-1893.9	169.32	451.7	-1857.3	165.2	361.93	-1968.3	175.11	391.04	-1963	144.31	360.02	-1973.3	140.68	423.09	NaN	NaN	NaN	-1777.9	49.668	359.88	NaN	NaN	NaN	-1415.9	669.73	134.45	-1309.6	636.04	131.55	-1372.5	591.17	153.98	-1362.3	713.57	111.15	-1290.2	535.56	144.21	-1275.5	548.69	288.42	-1306.5	392.6	122.52	-1230.4	315.42	149.36	-1291.8	315.85	125.39	-1244	390.89	142.16	-1269.8	104.11	155.28	-1244	116.92	256.22	-1337.2	69.858	204.85	-1324.2	46.412	237.72	-1327	45.276	175.36	-1119.1	48.152	139.02	-1091.6	61.551	258.87	-1030.2	76.381	205.26	-1551.9	1568.8	324.38	-1654.4	1258.8	350.93
3	0.0083333	NaN	NaN	NaN	-1433.8	1495.1	468.48	-1493.9	1512	144.85	-1366.1	1805.9	293.65	NaN	NaN	NaN	NaN	NaN	NaN	-1632.9	1034.2	358.38	-1636.9	1027.3	255.83	-1477.3	943.29	531	-1492.7	949.42	106.3	-1475.5	1089.8	518.26	-1512.3	1075.5	110.21	-1646.1	993.96	305.89	-1563.8	654.11	506.2	-1501.7	569.34	482.98	-1581.5	568.27	490.25	-1486.5	655.56	501.8	-1597.9	502.43	489.66	-1565.8	496.51	342.65	-1725	400.75	500.71	NaN	NaN	NaN	-1768.8	346.29	488.75	NaN	NaN	NaN	-1889.4	172.88	452.47	-1852.7	168.05	362.94	-1963.2	180.82	391.81	-1958.5	150.3	360.49	-1969.1	146.46	423.53	NaN	NaN	NaN	-1777.2	50.516	360.09	NaN	NaN	NaN	-1410.1	670.08	133.64	-1303.8	636.36	131.12	-1366.8	591.46	153.19	-1356.4	713.98	110.73	-1284.8	535.47	143.82	-1269.6	548.64	287.41	-1302.9	392.6	122.41	-1227.3	314.85	149.25	-1288.9	315.81	125.28	-1240.3	390.39	141.98	-1269.1	104.13	155.5	-1243.2	116.61	256.4	-1336.7	70.201	204.88	-1324	46.619	237.71	-1326.8	45.658	175.4	-1118.5	47.469	139.11	-1091.1	59.972	259.13	-1029.5	74.422	205.65	-1546.8	1569.1	323.13	-1648.9	1259	349.9
4	0.0125	NaN	NaN	NaN	-1428.5	1495.7	467.38	-1488.4	1512.3	143.67	-1361.4	1806.5	292.24	NaN	NaN	NaN	NaN	NaN	NaN	-1627	1034.4	357.76	-1630.9	1027.8	255.15	-1470.9	943.21	530.23	-1486.7	949.84	105.69	-1469.1	1090.3	517.33	-1506.2	1076.1	109.53	-1640.2	994.22	305.14	-1555.9	653.65	506.37	-1493.4	569.07	483.97	-1572.7	567.45	490.82	-1478.7	655.57	502.07	-1588.7	501.81	490.52	-1556.2	495.26	343.65	-1717.1	402.14	501.31	NaN	NaN	NaN	-1761.7	348.36	489.38	NaN	NaN	NaN	-1884.6	176.61	453.26	-1847.8	171.05	363.97	-1957.8	186.79	392.62	-1953.6	156.56	361	-1964.6	152.53	424.01	NaN	NaN	NaN	-1776.4	51.493	360.31	NaN	NaN	NaN	-1404.2	670.45	132.83	-1298	636.66	130.69	-1361.1	591.75	152.4	-1350.5	714.37	110.3	-1279.4	535.36	143.43	-1263.7	548.56	286.44	-1299.2	392.6	122.29	-1224.2	314.26	149.14	-1285.9	315.76	125.17	-1236.5	389.88	141.79	-1268.3	104.16	155.71	-1242.4	116.3	256.58	-1336.2	70.536	204.91	-1323.7	46.82	237.71	-1326.7	46.031	175.44	-1118	46.8	139.19	-1090.6	58.426	259.38	-1028.9	72.497	206.03	-1541.6	1569.4	321.84	-1643.2	1259.2	348.84
